@startuml
hide empty description
state imp <<choice>>
state api <<choice>>
state ech <<choice>>
state ctr <<choice>>
state rep <<choice>>

[*] -> imp : importation
imp -> TA : [exploitable]
imp --> DF : [inexploitable]
TA -> api : traitement API
api -> TH : [réussite]
TH -> ech : échantillonnage
api --> TR : [échec]
ech --> VA : [non]
ech --> TC : [oui]
TC -> ctr : contrôle
ctr --> TR : [incorrect]
TR -> rep : reprise
rep --> VR : [réussite]
rep -> ER : [échec]
ctr -> VC : [correct]
VC --> [*]
VA --> [*]
VR --> [*]
ER --> [*]
DF --> [*]
@enduml